<svg xmlns="http://www.w3.org/2000/svg" viewBox="0 0 208 208"><g fill="none" fill-rule="evenodd"><path fill="#F4F4F4" d="M.42 113.267h2.462v2.463H.42z"/><path fill="#4984FF" d="M.42 136.342h2.462v2.463H.42z" opacity=".4"/><path fill="#F4F4F4" d="M.42 159.417h2.462v2.463H.42zM.42 182.492h2.462v2.463H.42z"/><path fill="#DBDBDB" d="M.42 205.242h2.462v2.463H.42z"/><path fill="#FFC5C6" d="M.317 0h2.46v2.463H.318z"/><path fill="#F4F4F4" d="M.317 23.075h2.46v2.463H.318z"/><path fill="#DBDBDB" d="M.317 46.15h2.46v2.463H.318z"/><path fill="#F4F4F4" d="M.317 69.225h2.46v2.463H.318zM.317 92.3h2.46v2.463H.318z"/><g><path fill="#FFC5C6" d="M23.203 113.267h2.461v2.463h-2.46z"/><path fill="#F4F4F4" d="M23.203 136.342h2.461v2.463h-2.46z"/><path fill="#DBDBDB" d="M23.203 159.417h2.461v2.463h-2.46z"/><path fill="#F4F4F4" d="M23.203 182.492h2.461v2.463h-2.46zM23.203 205.242h2.461v2.463h-2.46zM23.1 0h2.46v2.463H23.1zM23.1 23.075h2.46v2.463H23.1zM23.1 46.15h2.46v2.463H23.1z"/><path fill="#FFDB99" d="M23.1 69.225h2.46v2.463H23.1z"/><path fill="#F4F4F4" d="M23.1 92.3h2.46v2.463H23.1z"/></g><g><path fill="#F4F4F4" d="M45.986 113.267h2.46v2.463h-2.46zM45.986 136.342h2.46v2.463h-2.46zM45.986 159.417h2.46v2.463h-2.46z"/><path fill="#FFDB99" d="M45.986 182.492h2.46v2.463h-2.46z"/><path fill="#F4F4F4" d="M45.986 205.242h2.46v2.463h-2.46z"/><path fill="#DBDBDB" d="M45.882 0h2.46v2.463h-2.46z"/><path fill="#F4F4F4" d="M45.882 23.075h2.46v2.463h-2.46zM45.882 46.15h2.46v2.463h-2.46zM45.882 69.225h2.46v2.463h-2.46z"/><path fill="#FFC5C6" d="M45.882 92.3h2.46v2.463h-2.46z"/></g><g><path fill="#DBDBDB" d="M68.443 113.267h2.461v2.463h-2.46z"/><path fill="#F4F4F4" d="M68.443 136.342h2.461v2.463h-2.46z"/><path fill="#FF999A" d="M68.443 159.417h2.461v2.463h-2.46z" opacity=".5"/><path fill="#F4F4F4" d="M68.443 182.492h2.461v2.463h-2.46z"/><path fill="#FFC5C6" d="M68.443 205.242h2.461v2.463h-2.46z"/><path fill="#F4F4F4" d="M68.664 0h2.461v2.463h-2.46z"/><path fill="#FFDB99" d="M68.664 23.075h2.461v2.463h-2.46z"/><path fill="#F4F4F4" d="M68.664 46.15h2.461v2.463h-2.46zM68.664 69.225h2.461v2.463h-2.46zM68.664 92.3h2.461v2.463h-2.46z"/></g><g><path fill="#F4F4F4" d="M91.55 113.267h2.462v2.463H91.55z"/><path fill="#FFDB99" d="M91.55 136.342h2.462v2.463H91.55z"/><path fill="#F4F4F4" d="M91.55 159.417h2.462v2.463H91.55zM91.55 182.492h2.462v2.463H91.55zM91.55 205.242h2.462v2.463H91.55zM91.366 0h2.46v2.463h-2.46z"/><path fill="#4984FF" d="M91.366 23.075h2.46v2.463h-2.46z" opacity=".4"/><path fill="#FFC5C6" d="M91.366 46.15h2.46v2.463h-2.46z"/><path fill="#F4F4F4" d="M91.366 69.225h2.46v2.463h-2.46z"/><path fill="#4984FF" d="M91.366 92.3h2.46v2.463h-2.46z" opacity=".4"/></g><g><path fill="#F4F4F4" d="M114.333 113.267h2.461v2.463h-2.46z"/><path fill="#4984FF" d="M114.333 136.342h2.461v2.463h-2.46z" opacity=".4"/><path fill="#F4F4F4" d="M114.333 159.417h2.461v2.463h-2.46zM114.333 182.492h2.461v2.463h-2.46z"/><path fill="#4984FF" d="M114.333 205.242h2.461v2.463h-2.46z" opacity=".4"/><path fill="#FFC5C6" d="M114.19 0h2.46v2.463h-2.46z"/><path fill="#F4F4F4" d="M114.19 23.075h2.46v2.463h-2.46z"/><path fill="#CDDDFF" d="M114.19 46.15h2.46v2.463h-2.46z" opacity=".4"/><path fill="#F4F4F4" d="M114.19 69.225h2.46v2.463h-2.46zM114.19 92.3h2.46v2.463h-2.46z"/></g><g><path fill="#FFC5C6" d="M137.116 113.267h2.46v2.463h-2.46z"/><path fill="#F4F4F4" d="M137.116 136.342h2.46v2.463h-2.46z"/><path fill="#DBDBDB" d="M137.116 159.417h2.46v2.463h-2.46z"/><path fill="#FFC5C6" d="M137.116 182.492h2.46v2.463h-2.46z"/><path fill="#F4F4F4" d="M137.116 205.242h2.46v2.463h-2.46zM136.972 0h2.46v2.463h-2.46zM136.972 23.075h2.46v2.463h-2.46zM136.972 46.15h2.46v2.463h-2.46z"/><path fill="#FFDB99" d="M136.972 69.225h2.46v2.463h-2.46z"/><path fill="#F4F4F4" d="M136.972 92.3h2.46v2.463h-2.46z"/></g><g><path fill="#F4F4F4" d="M159.898 113.267h2.461v2.463h-2.46zM159.898 136.342h2.461v2.463h-2.46zM159.898 159.417h2.461v2.463h-2.46z"/><path fill="#FFDB99" d="M159.898 182.492h2.461v2.463h-2.46z"/><path fill="#F4F4F4" d="M159.898 205.242h2.461v2.463h-2.46z"/><path fill="#DBDBDB" d="M159.754 0h2.461v2.463h-2.46z"/><path fill="#F4F4F4" d="M159.754 23.075h2.461v2.463h-2.46z"/><path fill="#DBDBDB" d="M159.754 46.15h2.461v2.463h-2.46z"/><path fill="#F4F4F4" d="M159.754 69.225h2.461v2.463h-2.46z"/><path fill="#FFC5C6" d="M159.754 92.3h2.461v2.463h-2.46z"/></g><g><path fill="#DBDBDB" d="M182.356 113.267h2.46v2.463h-2.46z"/><path fill="#4984FF" d="M182.356 136.342h2.46v2.463h-2.46z" opacity=".4"/><path fill="#F4F4F4" d="M182.356 159.417h2.46v2.463h-2.46z"/><path fill="#DBDBDB" d="M182.356 182.492h2.46v2.463h-2.46z"/><path fill="#4984FF" d="M182.356 205.242h2.46v2.463h-2.46z" opacity=".4"/><path fill="#F4F4F4" d="M182.537 0h2.46v2.463h-2.46z"/><path fill="#FFDB99" d="M182.537 23.075h2.46v2.463h-2.46z"/><path fill="#F4F4F4" d="M182.537 46.15h2.46v2.463h-2.46zM182.537 69.225h2.46v2.463h-2.46zM182.537 92.3h2.46v2.463h-2.46z"/></g><g><path fill="#F4F4F4" d="M205.463 113.267h2.461v2.463h-2.46z"/><path fill="#FFDB99" d="M205.463 136.342h2.461v2.463h-2.46z"/><path fill="#FFC5C6" d="M205.463 159.417h2.461v2.463h-2.46z"/><path fill="#F4F4F4" d="M205.463 182.492h2.461v2.463h-2.46zM205.463 205.242h2.461v2.463h-2.46zM205.278 0h2.461v2.463h-2.46z"/><path fill="#4984FF" d="M205.278 23.075h2.461v2.463h-2.46z" opacity=".4"/><path fill="#F4F4F4" d="M205.278 46.15h2.461v2.463h-2.46zM205.278 69.225h2.461v2.463h-2.46z"/><path fill="#4984FF" d="M205.278 92.3h2.461v2.463h-2.46z" opacity=".4"/></g></g></svg>